<?xml version="1.0" standalone="no"?>
<!DOCTYPE svg PUBLIC "-//W3C//DTD SVG 20010904//EN"
 "http://www.w3.org/TR/2001/REC-SVG-20010904/DTD/svg10.dtd">
<svg version="1.0" xmlns="http://www.w3.org/2000/svg"
 width="500.000000pt" height="500.000000pt" viewBox="0 0 500.000000 500.000000"
 preserveAspectRatio="xMidYMid meet">

<g transform="translate(0.000000,500.000000) scale(0.100000,-0.100000)"
fill="#000000" stroke="none">
<path d="M1673 4698 c-29 -34 -83 -115 -83 -127 0 -6 29 -51 65 -99 48 -66 74
-115 101 -188 36 -99 36 -100 35 -254 -1 -85 -4 -181 -8 -214 l-6 -58 -112 7
c-98 6 -121 4 -182 -14 -91 -27 -111 -52 -93 -118 17 -58 59 -115 118 -158 31
-22 48 -42 49 -57 1 -12 9 -28 18 -34 20 -15 19 -24 -3 -19 -14 2 -18 -4 -19
-36 -2 -36 0 -38 17 -29 13 7 17 16 13 28 -7 16 -6 16 11 0 40 -40 105 -26 90
19 -5 15 -4 15 5 3 8 -12 11 -12 17 3 3 9 10 17 15 17 4 0 -2 -18 -14 -40 -17
-33 -29 -43 -64 -52 -24 -6 -43 -14 -43 -19 0 -13 28 -11 36 2 4 8 9 7 15 -2
17 -28 8 -46 -30 -63 -42 -19 -71 -64 -50 -77 7 -4 9 -17 6 -31 -6 -21 -3 -24
23 -26 16 -1 31 2 35 8 3 5 -3 10 -14 10 -15 0 -21 6 -21 23 0 27 28 57 54 57
19 0 38 -42 30 -65 -5 -13 -2 -14 20 -5 22 8 26 7 26 -9 0 -14 -6 -17 -30 -13
-31 4 -38 -6 -19 -25 12 -12 3 -53 -12 -53 -5 0 -9 -9 -9 -21 0 -16 -4 -19
-22 -14 -18 5 -20 4 -8 -4 12 -8 12 -14 4 -28 -8 -14 -7 -37 7 -93 9 -41 15
-78 13 -81 -2 -4 -63 -21 -136 -39 l-133 -33 -75 -73 -75 -72 -38 19 -38 20
-44 -32 c-50 -36 -50 -39 -30 -122 10 -42 11 -65 3 -81 -6 -16 -7 -35 0 -59 6
-20 8 -73 5 -117 -5 -70 -9 -83 -30 -100 -23 -18 -24 -23 -17 -91 4 -46 18
-96 35 -136 29 -62 36 -93 22 -93 -5 0 -34 -24 -66 -53 l-59 -52 37 -55 c39
-58 323 -350 340 -350 5 0 19 -14 30 -30 19 -29 23 -30 98 -30 l77 0 0 48 c0
26 5 65 11 87 6 22 14 61 18 88 4 26 13 53 20 60 11 10 13 7 9 -13 -3 -14 -9
-34 -12 -45 -7 -19 -7 -19 4 -1 9 13 15 15 20 7 4 -7 20 19 39 61 17 40 45 99
62 132 48 93 27 76 -36 -30 -41 -69 -60 -93 -68 -85 -8 8 -8 14 0 22 6 6 9 28
6 50 -4 30 -2 40 11 45 14 5 91 81 170 168 28 31 33 28 14 -7 -6 -12 -17 -58
-24 -102 -11 -67 -11 -97 1 -183 15 -108 41 -182 31 -87 -5 45 -3 41 19 -33
33 -110 66 -176 88 -180 18 -4 18 -3 2 22 -16 24 -16 26 -1 26 9 0 16 5 16 11
0 5 -4 7 -10 4 -12 -7 -12 12 0 40 5 12 9 15 9 5 1 -10 4 -11 13 -2 8 8 8 15
-1 26 -9 11 -8 18 6 31 17 17 18 16 30 -13 9 -21 10 -45 4 -77 -10 -53 1 -68
19 -25 14 34 30 40 30 11 0 -11 5 -23 11 -27 8 -4 3 -12 -12 -20 -21 -12 -4
-13 124 -14 81 0 147 3 147 8 -1 22 -53 181 -70 215 -12 22 -19 41 -17 43 7 7
67 -96 67 -114 0 -9 10 -47 22 -85 l22 -67 127 0 128 0 5 53 c3 28 7 127 9
219 3 132 1 170 -9 179 -11 9 -10 16 6 36 11 14 20 34 20 43 0 10 7 21 16 24
11 4 13 13 8 28 -3 13 -10 24 -14 26 -12 5 13 49 44 77 14 13 26 31 26 41 0 9
11 29 25 46 27 32 30 43 15 53 -6 4 -7 -1 -3 -12 6 -15 5 -16 -9 -3 -8 8 -13
21 -10 29 4 10 1 13 -9 9 -10 -4 -15 1 -16 14 -2 18 -1 19 23 4 22 -15 24 -15
24 -1 0 9 -7 24 -16 32 -14 15 -14 17 0 25 26 14 37 46 30 82 -4 23 -10 33
-19 29 -8 -2 -11 -11 -9 -18 3 -7 -4 -16 -15 -20 -12 -3 -19 -11 -16 -16 4 -5
2 -9 -2 -9 -16 0 -33 24 -33 47 0 14 -6 23 -15 23 -8 0 -15 7 -15 16 0 8 -5
12 -11 8 -8 -4 -9 0 -4 15 9 29 -3 26 -31 -6 l-24 -28 0 25 -1 25 -21 -29 -21
-28 -20 23 c-16 20 -18 21 -12 4 4 -11 10 -33 14 -50 5 -23 14 -31 41 -38 80
-20 90 -27 90 -62 0 -17 -8 -42 -19 -53 -21 -25 -64 -31 -55 -8 6 16 -27 31
-36 16 -4 -7 -16 -6 -36 5 -16 8 -39 15 -50 15 -39 0 -79 11 -102 29 -22 16
-22 18 -7 55 14 33 14 43 2 86 -11 36 -11 50 -3 53 16 6 -54 77 -76 77 -10 0
-18 -4 -18 -10 0 -5 8 -10 19 -10 10 0 26 -12 36 -26 9 -15 11 -23 5 -19 -20
12 -80 15 -80 5 0 -9 6 -11 43 -14 11 -1 24 -17 43 -54 9 -17 -15 -72 -32 -72
-8 0 -14 6 -14 13 0 8 -4 7 -10 -3 -7 -11 -10 -4 -10 28 0 29 5 44 15 48 23 9
18 24 -9 24 -19 0 -27 -8 -36 -36 -7 -19 -9 -46 -6 -60 4 -16 3 -23 -3 -19
-14 8 -26 76 -14 84 17 11 23 41 8 41 -24 0 -25 17 -3 46 18 23 19 27 5 21 -9
-3 -17 -2 -17 3 0 6 -5 10 -11 10 -6 0 -8 -8 -5 -17 3 -10 -4 -31 -15 -48
l-21 -30 7 38 6 38 -27 -17 c-23 -15 -25 -23 -21 -57 5 -37 5 -38 -14 -21 -36
33 -21 -10 16 -46 34 -33 45 -60 25 -60 -12 0 -9 -37 3 -58 12 -18 -43 -16
-70 3 -27 19 -47 78 -39 116 18 94 114 215 177 225 48 8 184 -55 208 -97 19
-33 53 -52 100 -54 33 -2 33 -2 26 34 -21 111 -22 121 -8 121 7 0 13 4 13 10
0 12 -43 8 -52 -5 -5 -6 -8 -3 -8 7 0 23 66 62 88 52 16 -7 16 -7 0 -11 -19
-5 -25 -43 -7 -43 6 0 24 14 39 30 15 17 33 30 40 30 17 0 90 42 90 52 0 11
-18 10 -25 -2 -3 -5 -13 -10 -21 -10 -8 0 -13 4 -10 9 7 11 -70 -4 -87 -17 -7
-6 -34 -9 -60 -7 -26 2 -45 0 -42 -5 3 -5 -7 -16 -22 -24 -15 -8 -22 -15 -14
-16 11 0 11 -3 1 -15 -10 -11 -9 -18 4 -30 9 -9 16 -25 16 -36 0 -17 -2 -18
-13 -7 -8 7 -17 26 -21 41 -7 29 -26 37 -26 11 0 -8 -5 -12 -11 -9 -7 5 -2 16
13 33 13 14 17 22 11 18 -15 -8 -18 10 -3 19 17 11 3 67 -21 87 l-24 18 34 -7
c29 -5 33 -4 28 10 -5 14 1 17 31 18 20 1 45 1 55 0 9 -1 17 3 17 8 0 13 1 13
-107 15 -71 1 -86 4 -105 24 -25 25 -13 30 18 7 21 -16 119 -21 109 -5 -3 6
-14 10 -24 10 -9 0 -25 6 -35 13 -18 13 -18 14 0 16 11 1 35 2 54 2 59 -1 64
6 26 40 -33 28 -39 30 -67 20 -50 -17 -73 -13 -104 19 -16 17 -34 30 -39 30
-6 0 2 -12 17 -25 30 -26 15 -34 -17 -10 -15 11 -23 12 -34 3 -11 -10 -13 -8
-10 12 2 14 -3 32 -12 40 -37 37 -56 105 -26 94 11 -4 13 0 9 15 -3 11 -18 24
-35 30 -16 6 -39 22 -50 36 -11 14 -23 24 -26 21 -2 -3 1 -12 8 -21 7 -8 8
-15 2 -15 -15 0 -35 28 -27 40 3 5 3 15 -1 21 -5 8 -8 8 -14 0 -7 -13 -70 35
-70 53 0 5 10 0 23 -12 25 -24 37 -28 37 -12 0 6 -7 10 -15 10 -8 0 -15 4 -15
9 0 5 -7 17 -16 26 -9 9 -13 19 -9 23 4 4 10 1 12 -5 5 -15 33 -18 33 -4 0 5
9 11 19 14 15 3 18 1 14 -11 -5 -11 -2 -14 11 -9 9 4 15 3 12 -2 -12 -19 51
-27 113 -15 34 7 45 43 14 46 -10 1 -25 2 -33 4 -8 1 -26 2 -40 3 -24 2 -24 2
-6 16 11 8 14 15 7 15 -7 0 -9 5 -6 11 5 7 12 6 23 -3 22 -18 75 -41 68 -29
-3 4 3 16 14 26 11 10 20 13 20 7 0 -6 -5 -14 -10 -17 -12 -7 -4 -25 11 -25 5
0 9 7 9 15 0 9 6 12 15 9 25 -10 17 12 -17 45 -17 17 -27 31 -21 31 5 0 18 -9
28 -20 22 -24 40 -26 31 -4 -5 14 -4 15 8 4 9 -7 14 -24 12 -41 -2 -19 4 -40
17 -57 11 -15 17 -24 12 -20 -4 4 -14 0 -20 -9 -11 -14 -10 -19 3 -29 11 -8
19 -7 32 5 9 9 13 18 8 21 -4 3 -3 22 2 42 20 69 -6 147 -49 148 -9 1 -29 11
-45 24 -16 14 -36 21 -47 19 -12 -3 -21 1 -25 11 -6 15 -17 16 -75 11 -60 -6
-68 -5 -63 9 5 12 2 15 -12 10 -13 -4 -8 5 14 25 17 18 36 30 40 27 5 -3 15 3
24 13 14 17 33 18 197 17 103 -1 185 2 188 7 12 19 113 56 212 76 141 30 141
30 141 2 0 -13 9 -21 28 -26 15 -3 44 -21 65 -41 34 -32 49 -53 28 -40 -5 4
-7 -3 -4 -14 3 -11 -2 -36 -12 -56 -22 -48 -35 -94 -26 -94 14 0 31 24 31 45
0 12 3 25 7 28 10 11 32 -13 26 -29 -3 -8 -1 -14 5 -14 5 0 12 -7 15 -14 4
-10 1 -13 -9 -9 -10 4 -12 0 -8 -11 3 -9 10 -16 15 -16 5 0 9 -5 9 -11 0 -5
-6 -7 -12 -4 -7 4 -4 -1 6 -9 18 -14 15 -21 -7 -17 -4 1 -7 -9 -6 -21 4 -49
-2 -79 -20 -97 -20 -20 -18 -32 2 -27 7 2 9 1 5 -1 -5 -3 -8 -14 -8 -26 0 -12
-9 -37 -20 -55 -31 -51 -24 -59 14 -16 l33 39 8 -82 c4 -54 3 -88 -4 -100 -9
-14 -10 -8 -5 27 4 25 4 42 0 39 -3 -3 -8 -29 -11 -58 -5 -65 -21 -117 -48
-155 -13 -18 -21 -46 -22 -75 0 -25 -6 -56 -13 -68 -15 -27 -15 -36 0 -27 6 4
3 -5 -8 -19 -10 -15 -22 -27 -26 -27 -5 0 -8 -5 -8 -12 0 -7 16 3 35 22 19 19
35 40 35 47 0 7 7 13 14 13 21 0 61 56 80 110 20 58 13 62 -16 8 l-23 -43 -3
64 c-2 47 1 68 13 81 30 33 55 118 55 184 0 35 6 79 14 97 20 50 30 87 17 70
-12 -18 -36 -2 -44 29 -4 15 0 20 14 20 10 0 19 3 20 8 4 45 6 91 2 72 -6 -33
-23 -50 -23 -24 0 10 -3 37 -7 59 l-6 40 24 -20 c18 -16 21 -16 10 -2 -8 9
-12 20 -9 23 3 2 12 -10 21 -28 l16 -33 9 25 c12 32 0 64 -25 68 -16 2 -20 11
-21 53 -1 44 2 51 24 61 13 6 24 15 24 20 0 4 7 8 15 8 19 0 19 9 -2 32 -9 10
-11 18 -5 18 6 0 14 -5 18 -11 3 -6 17 -8 30 -5 13 4 51 -2 85 -14 55 -18 64
-18 95 -5 34 14 43 28 23 40 -6 4 -8 28 -4 63 6 53 5 56 -9 38 -9 -11 -16 -25
-16 -32 0 -7 -5 -16 -12 -20 -6 -4 -8 -3 -4 4 3 6 2 13 -4 17 -7 4 -6 13 1 27
10 18 9 20 -5 15 -9 -4 -23 -10 -33 -14 -11 -4 -14 -3 -9 5 4 7 14 12 22 12
18 0 18 14 -1 30 -19 16 -19 22 4 49 24 28 18 59 -8 39 -9 -7 -22 -20 -30 -28
-7 -8 -6 -4 3 10 9 14 26 44 38 68 l22 42 -20 21 c-21 20 -23 20 -100 4 -43
-9 -103 -27 -132 -40 -63 -29 -82 -23 -111 33 -29 56 -71 235 -71 300 0 123
50 394 85 462 8 16 15 31 15 35 0 3 -301 5 -668 5 l-669 0 -20 -22z m1142
-698 c-5 -8 -14 -5 -31 11 -19 18 -26 20 -39 9 -8 -7 -15 -18 -15 -26 0 -19
-16 -26 -29 -11 -8 10 -3 24 21 56 l31 43 35 -35 c20 -21 32 -40 27 -47z m38
-25 c4 -8 2 -17 -3 -20 -6 -4 -10 3 -10 14 0 25 6 27 13 6z m-73 -19 c0 -8 -4
-17 -9 -21 -12 -7 -24 12 -16 25 9 15 25 12 25 -4z m-90 -26 c0 -4 -6 -13 -14
-19 -18 -15 -41 10 -25 26 12 12 39 7 39 -7z m118 -58 c-13 -23 -27 -42 -33
-42 -5 0 -23 11 -40 24 -23 19 -27 27 -19 36 9 9 17 9 32 1 30 -16 37 -14 51
16 8 17 15 23 22 16 6 -6 1 -24 -13 -51z m362 -132 c0 -5 -2 -10 -4 -10 -3 0
-8 5 -11 10 -3 6 -1 10 4 10 6 0 11 -4 11 -10z m97 -64 c-4 -10 -1 -13 7 -10
8 3 17 0 22 -7 8 -14 -33 -52 -47 -43 -11 6 -8 42 4 62 11 17 20 15 14 -2z
m-1612 -216 c-3 -5 -11 -10 -16 -10 -6 0 -7 5 -4 10 3 6 11 10 16 10 6 0 7 -4
4 -10z m115 -189 c-12 -24 -13 -34 -1 -26 5 3 12 1 16 -5 3 -5 1 -10 -6 -10
-6 0 -19 -8 -28 -18 -18 -20 -66 -28 -54 -9 8 13 77 87 81 87 1 0 -2 -9 -8
-19z m1310 9 c0 -5 -5 -10 -11 -10 -5 0 -7 5 -4 10 3 6 8 10 11 10 2 0 4 -4 4
-10z m-1302 -152 c-3 -7 -13 -15 -24 -17 -16 -3 -17 -1 -5 13 16 19 34 21 29
4z m67 -80 c3 -16 13 -40 21 -54 9 -13 13 -24 10 -24 -14 0 -53 31 -74 59 -21
29 -21 31 -5 65 l16 35 14 -26 c7 -14 16 -39 18 -55z m-95 -23 c0 -9 -6 -12
-15 -9 -8 4 -12 10 -9 15 8 14 24 10 24 -6z m18 -111 c15 -5 22 -14 22 -32 0
-14 -3 -22 -7 -19 -3 4 -12 -1 -20 -11 -12 -15 -13 -13 -8 18 l7 35 -17 -24
c-13 -17 -20 -20 -26 -10 -8 13 6 49 19 49 4 0 17 -3 30 -6z m532 -200 c0 -2
-9 0 -20 6 -11 6 -20 13 -20 16 0 2 9 0 20 -6 11 -6 20 -13 20 -16z m-25 -18
c20 -19 24 -29 17 -41 -8 -15 -12 -14 -30 10 -20 25 -29 55 -18 55 3 0 17 -11
31 -24z m-245 -80 c5 -13 14 -27 19 -31 6 -3 11 -13 11 -22 0 -11 -5 -9 -19 8
-29 38 -43 69 -31 69 6 0 15 -11 20 -24z m957 -18 c-3 -8 -6 -5 -6 6 -1 11 2
17 5 13 3 -3 4 -12 1 -19z m-787 -9 c0 -11 -4 -17 -10 -14 -5 3 -10 13 -10 21
0 8 5 14 10 14 6 0 10 -9 10 -21z m220 -40 c0 -14 -11 -11 -32 8 -27 24 -22
36 7 17 14 -9 25 -20 25 -25z m-330 -4 c11 -13 10 -14 -4 -9 -9 3 -16 10 -16
15 0 13 6 11 20 -6z m173 -27 c-5 -10 -33 10 -33 23 0 5 9 4 19 -3 11 -7 17
-16 14 -20z m121 -1 c27 -26 -7 -28 -40 -2 l-29 24 27 -3 c14 -2 33 -10 42
-19z m286 13 c0 -5 -7 -10 -16 -10 -8 0 -12 5 -9 10 3 6 10 10 16 10 5 0 9 -4
9 -10z m-300 -63 c0 -14 -5 -17 -17 -13 -14 6 -14 3 3 -15 l19 -22 -23 12
c-13 7 -26 19 -29 27 -3 8 -11 14 -19 14 -8 0 -14 5 -14 10 0 6 5 10 10 10 6
0 10 7 10 16 0 13 4 13 30 -3 17 -9 30 -26 30 -36z m120 -132 c0 -8 -4 -15
-10 -15 -5 0 -10 7 -10 15 0 8 5 15 10 15 6 0 10 -7 10 -15z m-488 -250 c-3
-38 -1 -55 7 -55 7 0 9 -4 6 -10 -3 -5 1 -10 9 -10 9 0 16 5 16 11 0 5 4 8 8
5 5 -3 28 -6 53 -7 54 -3 99 -24 99 -46 0 -9 3 -13 6 -10 7 7 64 -30 64 -41 0
-9 -117 -32 -160 -32 -23 0 -40 10 -63 35 l-32 35 -17 -30 c-13 -24 -14 -31
-4 -37 12 -8 36 -45 36 -57 0 -3 -4 -6 -8 -6 -10 0 -41 59 -58 110 l-12 35 -1
-52 c-1 -28 -6 -55 -11 -58 -11 -7 -8 -89 5 -118 7 -16 3 -63 -9 -122 -3 -11
-5 -26 -5 -32 -1 -7 -5 -13 -9 -13 -4 0 -6 33 -5 73 2 55 0 65 -7 43 -5 -16
-6 -42 -3 -57 3 -16 2 -29 -3 -29 -13 0 -9 -87 4 -103 7 -8 10 -21 6 -30 -3
-8 -1 -18 5 -22 6 -3 11 -11 11 -16 0 -6 -5 -7 -11 -3 -9 5 -10 -1 -5 -20 7
-28 -2 -33 -23 -13 -12 10 -13 8 -6 -8 12 -32 14 -64 4 -71 -5 -3 -9 3 -9 14
0 10 -9 54 -21 98 -27 101 -34 234 -13 234 7 0 14 7 14 16 0 9 8 23 18 30 16
13 16 14 0 8 -13 -5 -18 -1 -18 14 0 29 11 53 21 46 5 -3 9 2 9 10 0 9 9 33
20 54 11 21 27 76 35 120 12 71 46 172 58 172 2 0 2 -25 -1 -55z m698 -37 c0
-6 -6 -5 -15 2 -8 7 -15 14 -15 16 0 2 7 1 15 -2 8 -4 15 -11 15 -16z m-553
-14 c-3 -3 -12 -4 -19 -1 -8 3 -5 6 6 6 11 1 17 -2 13 -5z m516 -116 c15 -6
27 -16 27 -23 0 -15 -31 -15 -42 0 -7 9 -22 -5 -31 -29 -2 -5 -41 -8 -87 -7
-76 2 -90 6 -157 42 -78 41 -88 45 -78 29 9 -14 -8 -13 -23 2 -15 15 -16 32
-2 23 16 -10 50 5 50 21 0 12 7 14 28 10 15 -3 33 -2 40 2 11 8 188 -38 275
-70z m-478 -59 c4 -5 12 -8 18 -6 7 2 30 -2 52 -10 72 -24 72 -24 50 -33 -17
-8 -16 -9 8 -9 16 -1 47 -5 70 -10 23 -5 77 -15 120 -22 75 -12 95 -22 60 -33
-10 -3 -6 -4 9 -2 19 2 25 -1 21 -11 -7 -17 -133 -16 -133 1 0 8 -2 8 -8 0 -4
-6 -16 -11 -27 -11 -11 0 -23 5 -27 11 -5 7 -8 5 -8 -6 0 -26 -127 -29 -202
-5 -101 33 -129 112 -46 132 l33 8 -40 7 -40 7 42 2 c23 0 45 -4 48 -10z m195
-9 c46 -25 34 -25 -21 0 -24 11 -37 19 -29 19 8 0 31 -8 50 -19z m40 -170 c0
-5 -10 -10 -22 -9 -22 0 -22 1 -3 9 11 5 21 9 23 9 1 1 2 -3 2 -9z m-228 -39
c24 -10 52 -26 63 -35 19 -16 18 -16 -12 -1 -27 12 -31 13 -27 1 3 -7 19 -17
37 -20 22 -5 28 -9 20 -17 -16 -16 -42 -4 -98 46 -55 48 -50 55 17 26z m381
-8 c-7 -2 -21 -2 -30 0 -10 3 -4 5 12 5 17 0 24 -2 18 -5z m-88 -32 c-14 -14
-73 -26 -60 -13 6 5 19 12 30 15 34 8 40 8 30 -2z m-127 -38 c-10 -2 -18 -9
-18 -14 0 -5 -8 -9 -17 -9 -16 1 -16 2 1 15 11 8 27 14 35 14 13 -1 12 -2 -1
-6z m-58 -48 c-7 -8 -17 -15 -22 -15 -6 0 -5 7 2 15 7 8 17 15 22 15 6 0 5 -7
-2 -15z m-770 -5 c0 -5 -5 -10 -11 -10 -5 0 -7 5 -4 10 3 6 8 10 11 10 2 0 4
-4 4 -10z m390 -190 c0 -5 -5 -10 -11 -10 -5 0 -7 5 -4 10 3 6 8 10 11 10 2 0
4 -4 4 -10z m194 -45 c-4 -8 -11 -15 -16 -15 -6 0 -5 6 2 15 7 8 14 15 16 15
2 0 1 -7 -2 -15z"/>
<path d="M2168 1983 c7 -3 16 -2 19 1 4 3 -2 6 -13 5 -11 0 -14 -3 -6 -6z"/>
<path d="M1906 1795 c-9 -26 -7 -32 5 -12 6 10 9 21 6 23 -2 3 -7 -2 -11 -11z"/>
<path d="M2335 1720 c4 -6 11 -8 16 -5 14 9 11 15 -7 15 -8 0 -12 -5 -9 -10z"/>
<path d="M3390 3740 c0 -5 7 -10 16 -10 8 0 12 5 9 10 -3 6 -10 10 -16 10 -5
0 -9 -4 -9 -10z"/>
<path d="M3430 3688 c0 -9 5 -20 10 -23 13 -8 13 5 0 25 -8 13 -10 13 -10 -2z"/>
<path d="M3420 3648 c0 -8 6 -23 14 -33 13 -18 14 -18 9 8 -6 29 -23 48 -23
25z"/>
<path d="M3455 3633 c3 -8 5 -24 5 -35 0 -11 5 -18 13 -15 6 2 10 11 8 18 -2
8 -4 21 -3 30 0 9 -6 16 -14 16 -9 0 -13 -6 -9 -14z"/>
<path d="M2850 3580 c0 -5 5 -10 11 -10 5 0 7 5 4 10 -3 6 -8 10 -11 10 -2 0
-4 -4 -4 -10z"/>
<path d="M3142 3448 c2 -6 10 -14 16 -16 7 -2 10 2 6 12 -7 18 -28 22 -22 4z"/>
<path d="M2620 3440 c0 -15 -72 -31 -87 -19 -9 8 -14 7 -19 -4 -3 -9 -11 -14
-18 -11 -7 3 -24 -6 -39 -20 -53 -49 -21 -81 41 -42 32 20 41 22 56 11 16 -12
16 -14 -6 -29 -12 -9 -19 -16 -14 -16 5 0 4 -6 -2 -13 -7 -8 -7 -17 2 -30 20
-27 44 -21 51 14 l7 31 22 -21 c29 -27 47 -26 75 3 13 14 30 22 40 19 12 -3
11 -1 -3 11 -13 11 -40 16 -77 16 -58 0 -84 14 -58 31 22 14 96 10 136 -6 20
-8 38 -13 41 -11 7 8 -61 46 -82 46 -14 0 -16 3 -7 13 8 11 5 16 -15 25 -30
14 -44 15 -44 2z"/>
<path d="M3240 3360 c-6 -27 -8 -54 -4 -61 4 -8 3 -9 -4 -5 -7 4 -12 2 -12 -5
0 -7 -10 -5 -27 7 -26 16 -25 14 7 -23 30 -34 40 -39 65 -35 17 2 33 7 36 11
14 13 30 114 20 124 -6 6 -12 1 -17 -16 -3 -15 -10 -24 -15 -21 -5 3 -9 -2 -9
-12 0 -12 -3 -14 -13 -5 -9 7 -12 23 -8 43 3 19 6 26 9 16 3 -18 32 -26 32
-10 0 10 -33 42 -42 42 -3 0 -11 -22 -18 -50z"/>
<path d="M2895 3340 c-8 -13 5 -13 25 0 13 8 13 10 -2 10 -9 0 -20 -4 -23 -10z"/>
<path d="M1570 3254 c0 -11 43 -45 48 -39 3 3 -4 14 -16 25 -22 20 -32 25 -32
14z"/>
<path d="M3377 3253 c-4 -3 -7 -11 -7 -17 0 -6 5 -5 12 2 6 6 9 14 7 17 -3 3
-9 2 -12 -2z"/>
<path d="M1533 3225 c-10 -11 -10 -14 0 -18 9 -4 9 -7 0 -18 -11 -11 -13 -11
-13 1 0 11 -3 11 -12 2 -22 -22 11 -33 40 -14 21 14 22 17 8 27 -12 9 -13 14
-4 23 7 7 8 12 3 12 -6 -1 -15 -7 -22 -15z"/>
<path d="M2240 3175 c7 -9 15 -13 17 -11 7 7 -7 26 -19 26 -6 0 -6 -6 2 -15z"/>
<path d="M3153 3165 c-12 -13 -21 -53 -33 -152 -4 -40 -11 -77 -14 -82 -4 -5
21 -29 54 -52 61 -44 72 -62 45 -73 -9 -3 -21 -19 -26 -35 -6 -16 -32 -47 -58
-69 -31 -26 -61 -66 -86 -114 -44 -83 -63 -107 -122 -149 l-42 -29 -16 27 -16
28 5 -40 c5 -37 4 -38 -8 -16 -23 41 -29 -11 -12 -91 9 -43 22 -49 29 -15 3
16 5 14 6 -10 1 -32 -14 -53 -22 -31 -2 7 -7 10 -11 7 -3 -3 5 -30 19 -60 13
-30 22 -62 19 -71 -5 -18 14 -64 23 -54 4 3 19 -21 35 -54 15 -33 30 -60 33
-60 7 0 -16 60 -26 66 -5 3 -9 12 -9 20 0 9 5 12 12 8 8 -5 9 0 6 14 -8 29 12
28 57 -2 20 -14 57 -28 83 -31 26 -3 59 -12 75 -20 32 -17 77 -5 77 20 0 8 5
15 11 15 6 0 22 9 36 20 14 11 29 20 33 20 9 0 25 -276 24 -415 -1 -60 -9
-155 -17 -210 -9 -55 -19 -146 -23 -203 l-7 -102 177 0 178 0 274 272 274 272
0 235 c0 130 -4 251 -9 269 -6 20 -6 32 0 32 5 0 9 68 9 161 0 98 -4 158 -9
154 -6 -3 -56 20 -112 52 -72 40 -119 59 -158 65 -153 22 -201 27 -255 28 -55
0 -61 3 -120 51 -53 45 -70 68 -124 173 -37 70 -80 137 -103 160 -21 21 -39
42 -39 47 0 26 -96 46 -117 24z m47 -515 c18 -28 30 -53 27 -56 -3 -4 -18 -2
-34 3 -25 9 -28 14 -28 56 0 26 0 47 1 47 1 0 16 -23 34 -50z m850 -434 c0
-19 -14 -28 -34 -20 -15 6 -15 8 1 20 23 17 33 17 33 0z m-705 -126 c3 -5 1
-10 -4 -10 -6 0 -11 5 -11 10 0 6 2 10 4 10 3 0 8 -4 11 -10z m305 0 c0 -5 -7
-10 -15 -10 -8 0 -15 5 -15 10 0 6 7 10 15 10 8 0 15 -4 15 -10z m43 -244 c4
-10 1 -13 -9 -9 -15 6 -19 23 -5 23 5 0 11 -7 14 -14z m-183 -6 c0 -5 -2 -10
-4 -10 -3 0 -8 5 -11 10 -3 6 -1 10 4 10 6 0 11 -4 11 -10z m398 -207 c-5 -25
-28 -28 -28 -4 0 12 6 21 16 21 9 0 14 -7 12 -17z m-388 -27 c0 -3 -4 -8 -10
-11 -5 -3 -10 -1 -10 4 0 6 5 11 10 11 6 0 10 -2 10 -4z"/>
<path d="M2317 3086 c-3 -8 1 -17 10 -20 20 -8 27 -1 20 19 -8 19 -23 20 -30
1z"/>
<path d="M2375 3070 c-3 -5 -1 -10 4 -10 6 0 11 5 11 10 0 6 -2 10 -4 10 -3 0
-8 -4 -11 -10z"/>
<path d="M2147 3059 c7 -7 15 -10 18 -7 3 3 -2 9 -12 12 -14 6 -15 5 -6 -5z"/>
<path d="M1562 3028 c3 -7 15 -14 29 -15 14 -1 17 0 7 3 -10 3 -18 10 -18 15
0 5 -5 9 -11 9 -6 0 -9 -6 -7 -12z"/>
<path d="M2281 2976 c-35 -60 -37 -74 -16 -102 13 -18 14 -18 15 -1 0 10 7 25
16 34 14 14 18 13 45 -13 27 -26 32 -27 61 -16 26 10 36 9 54 -3 18 -12 22
-12 20 -1 -3 20 -26 46 -42 46 -7 0 -29 14 -47 30 -36 31 -58 41 -38 16 9 -11
7 -15 -11 -19 -30 -8 -32 -4 -20 43 14 55 -1 50 -37 -14z"/>
<path d="M2900 2959 c0 -5 5 -7 10 -4 6 3 10 8 10 11 0 2 -4 4 -10 4 -5 0 -10
-5 -10 -11z"/>
<path d="M2220 2936 c0 -14 5 -26 10 -26 6 0 10 9 10 19 0 11 -4 23 -10 26 -6
4 -10 -5 -10 -19z"/>
<path d="M2460 2939 c0 -5 8 -9 18 -10 9 -1 34 -3 55 -4 27 -3 37 0 34 8 -4
14 -107 20 -107 6z"/>
<path d="M2210 2893 c0 -4 5 -15 10 -23 8 -13 10 -13 10 2 0 9 -4 20 -10 23
-5 3 -10 3 -10 -2z"/>
<path d="M2507 2794 c-10 -11 2 -24 17 -18 8 3 17 1 21 -5 3 -6 -1 -11 -10
-11 -9 0 -15 -6 -13 -12 5 -14 86 -12 103 2 6 5 27 7 48 6 20 -1 37 2 37 6 0
15 -40 28 -86 28 -40 0 -45 -2 -34 -15 10 -12 10 -15 -2 -15 -7 0 -21 9 -31
20 -17 20 -38 26 -50 14z"/>
<path d="M2806 2526 c5 -14 54 -51 54 -42 0 7 -46 56 -53 56 -4 0 -4 -6 -1
-14z"/>
<path d="M2375 2287 c8 -36 9 -60 3 -71 -6 -11 -6 -22 2 -32 18 -20 48 -17 55
6 10 32 25 23 19 -10 -6 -26 -4 -30 15 -30 30 0 28 47 -5 85 -23 27 -24 28
-19 7 11 -37 -27 -24 -39 13 -29 97 -51 120 -31 32z"/>
<path d="M2760 2264 c0 -12 38 -74 46 -74 3 0 -5 17 -17 38 -28 46 -29 47 -29
36z"/>
<path d="M2862 2028 c-7 -24 -12 -67 -9 -94 l3 -49 2 56 c1 30 7 60 13 66 6 6
9 23 7 39 -3 25 -4 23 -16 -18z"/>
<path d="M2787 2034 c-4 -4 -7 -17 -7 -28 1 -19 1 -20 11 -3 11 19 8 43 -4 31z"/>
<path d="M2861 1870 c0 -8 4 -22 9 -30 12 -18 12 -2 0 25 -6 13 -9 15 -9 5z"/>
<path d="M2753 1808 c7 -19 -17 -26 -28 -8 -10 16 -25 11 -25 -8 0 -10 11 -29
25 -42 14 -13 25 -31 25 -40 0 -20 47 -111 64 -123 7 -6 6 -6 -4 -3 -8 3 -22
9 -32 12 -9 3 -19 17 -22 30 -4 13 -11 24 -16 24 -18 0 -28 -33 -19 -64 5 -17
9 -44 9 -59 0 -24 -3 -27 -21 -22 l-22 7 21 -29 c28 -40 90 -73 101 -54 6 9
11 10 15 2 19 -29 54 14 47 57 -3 18 7 15 48 -16 70 -55 101 -73 101 -62 0 11
-21 33 -138 152 -15 16 -33 28 -39 28 -16 0 -28 44 -17 62 6 10 5 11 -8 1 -18
-15 -28 -7 -27 21 0 21 1 21 9 1 5 -11 9 -14 9 -7 1 6 10 12 20 12 11 0 27 7
36 16 14 15 14 17 -2 30 -10 7 -29 14 -43 14 -35 0 -48 11 -54 44 -3 16 -8 31
-12 35 -4 3 -4 -2 -1 -11z"/>
<path d="M2660 1789 c0 -5 5 -7 10 -4 6 3 10 8 10 11 0 2 -4 4 -10 4 -5 0 -10
-5 -10 -11z"/>
<path d="M2860 1749 c0 -10 3 -20 8 -20 43 -7 63 -6 67 2 4 5 0 9 -7 9 -7 0
-25 7 -40 14 -26 14 -28 13 -28 -5z"/>
<path d="M1770 1685 c-7 -9 -8 -15 -2 -15 5 0 12 7 16 15 3 8 4 15 2 15 -2 0
-9 -7 -16 -15z"/>
<path d="M2881 1594 c0 -11 3 -14 6 -6 3 7 2 16 -1 19 -3 4 -6 -2 -5 -13z"/>
<path d="M1710 1298 c0 -29 5 -70 11 -90 9 -35 13 -38 44 -38 19 0 35 2 35 4
0 2 -7 21 -16 42 -36 89 -58 134 -66 134 -4 0 -8 -24 -8 -52z"/>
<path d="M3157 1317 c3 -12 13 -40 23 -62 11 -22 21 -48 24 -57 3 -10 11 -18
18 -18 9 0 9 3 -2 11 -11 8 -12 12 -2 16 16 6 15 71 -1 103 -8 16 -22 25 -39
27 -22 1 -25 -2 -21 -20z"/>
<path d="M3271 1284 c0 -11 3 -14 6 -6 3 7 2 16 -1 19 -3 4 -6 -2 -5 -13z"/>
<path d="M2930 1287 c0 -15 21 -47 31 -47 5 0 21 -12 35 -27 17 -20 22 -23 17
-9 -5 15 -3 17 8 11 8 -4 1 6 -15 23 -22 24 -32 29 -39 20 -5 -8 -6 -5 -2 10
4 13 2 22 -4 22 -6 0 -11 -6 -11 -12 0 -9 -4 -8 -10 2 -5 8 -10 11 -10 7z"/>
<path d="M1836 1215 c7 -31 20 -52 28 -44 2 2 -4 20 -15 39 -19 35 -19 35 -13
5z"/>
</g>
</svg>
